<?xml version="1.0" standalone="no"?>
<!DOCTYPE svg PUBLIC "-//W3C//DTD SVG 20010904//EN"
 "http://www.w3.org/TR/2001/REC-SVG-20010904/DTD/svg10.dtd">
<svg version="1.0" xmlns="http://www.w3.org/2000/svg"
 width="3209.000000pt" height="3209.000000pt" viewBox="0 0 3209.000000 3209.000000"
 preserveAspectRatio="xMidYMid meet">
<metadata>
Created by potrace 1.11, written by Peter Selinger 2001-2013
</metadata>
<g transform="translate(0.000000,3209.000000) scale(0.100000,-0.100000)"
fill="#000000" stroke="none">
<path d="M2382 19769 c-339 -57 -711 -365 -916 -760 -31 -58 -72 -147 -91
-199 -34 -86 -1323 -5188 -1357 -5365 -7 -40 -13 -138 -12 -230 0 -130 4 -176
22 -249 71 -283 250 -479 487 -531 63 -14 1540 -15 14640 -13 l14570 3 74 23
c175 54 343 156 495 302 216 207 369 455 455 737 35 113 1304 5168 1321 5258
6 33 13 110 17 170 22 410 -158 732 -467 838 l-65 22 -14560 1 c-8449 1
-14582 -2 -14613 -7z m29169 -146 c85 -29 174 -88 227 -149 57 -66 118 -187
143 -281 26 -100 36 -292 20 -404 -13 -90 -1296 -5212 -1337 -5339 -37 -112
-135 -303 -210 -407 -167 -233 -398 -409 -614 -470 -63 -17 -588 -18 -14630
-18 l-14565 0 -59 23 c-176 67 -301 216 -357 428 -27 101 -35 280 -20 399 13
94 1281 5160 1332 5322 150 469 545 864 914 913 33 4 6592 7 14575 6 l14515
-1 66 -22z"/>
<path d="M3030 18727 c-151 -35 -249 -140 -278 -298 -18 -97 8 -163 80 -200
62 -32 134 -34 326 -9 118 15 209 21 285 19 103 -4 116 -6 167 -35 38 -22 64
-46 85 -79 29 -47 30 -52 30 -169 l-1 -121 -427 -1650 c-236 -907 -442 -1693
-459 -1745 -104 -320 -246 -441 -518 -442 -60 -1 -172 9 -260 22 -227 32 -318
17 -414 -71 -70 -64 -98 -127 -103 -234 -5 -101 13 -139 82 -174 66 -35 158
-37 470 -12 601 48 926 49 1605 4 359 -24 901 -23 1075 0 357 48 632 129 900
264 219 110 384 232 552 407 238 247 393 549 470 916 23 106 27 150 27 295 0
185 -15 277 -70 407 -101 244 -330 437 -624 529 -41 12 -79 26 -83 30 -5 3 24
14 65 24 626 151 1023 609 1105 1273 42 334 -52 596 -275 773 -257 205 -697
302 -1292 285 -124 -4 -409 -18 -635 -31 -748 -44 -934 -44 -1425 5 -275 28
-394 32 -460 17z m2610 -497 c145 -13 316 -43 406 -71 275 -85 410 -261 390
-507 -20 -239 -140 -484 -330 -676 -302 -304 -579 -380 -1386 -381 -389 0
-454 6 -539 49 -62 31 -86 66 -85 124 2 43 254 1034 287 1128 46 128 126 227
220 269 60 27 176 52 297 64 126 12 608 12 740 1z m-440 -2165 c605 -85 850
-290 850 -711 0 -245 -88 -530 -229 -747 -59 -90 -189 -229 -275 -293 -326
-245 -762 -343 -1396 -314 -377 17 -519 47 -601 129 -60 59 -73 104 -67 231 4
82 26 177 157 680 171 658 180 688 228 782 90 172 195 228 488 257 142 15 709
5 845 -14z"/>
<path d="M8390 18727 c-153 -36 -246 -136 -280 -301 -30 -147 50 -246 200
-246 34 0 115 9 179 20 389 66 525 37 586 -125 14 -36 17 -65 13 -142 -5 -88
-51 -275 -452 -1823 -496 -1915 -474 -1840 -585 -1950 -131 -129 -320 -166
-608 -119 -178 29 -267 24 -351 -21 -119 -63 -183 -166 -190 -305 -4 -101 14
-139 82 -174 67 -35 153 -37 471 -12 616 47 815 49 1315 9 318 -25 649 -29
730 -9 133 34 228 101 278 196 22 42 26 63 27 132 0 76 -2 84 -31 120 -69 87
-138 98 -392 62 -263 -38 -440 -15 -511 66 -55 63 -64 147 -32 300 27 127 309
1213 322 1239 24 46 75 87 129 104 49 15 100 17 465 14 966 -8 1336 56 1743
300 174 105 349 248 460 378 269 315 451 794 469 1235 22 574 -286 912 -935
1025 -273 47 -567 49 -1222 5 -655 -44 -938 -43 -1415 5 -280 28 -399 32 -465
17z m2413 -497 c493 -29 762 -135 874 -346 91 -171 86 -447 -13 -754 -104
-323 -306 -559 -579 -678 -293 -127 -781 -193 -1329 -179 -333 8 -386 28 -386
144 0 39 51 254 179 747 99 380 191 722 205 759 31 83 86 167 135 207 102 85
474 126 914 100z"/>
<path d="M13822 18721 c-98 -27 -162 -64 -221 -126 -93 -98 -115 -163 -172
-500 -59 -356 -87 -464 -240 -933 -115 -352 -124 -416 -76 -509 68 -129 266
-120 413 19 108 102 131 162 184 484 60 364 99 513 178 669 139 279 321 367
787 382 319 10 459 -24 501 -124 20 -46 17 -165 -5 -280 -24 -121 -832 -3287
-859 -3363 -101 -287 -238 -381 -557 -384 -85 -1 -172 6 -250 18 -248 40 -342
21 -456 -94 -58 -57 -70 -75 -88 -134 -29 -93 -28 -183 2 -226 32 -48 63 -67
137 -86 79 -20 240 -16 690 18 379 28 915 30 1245 5 451 -35 599 -41 673 -30
185 29 301 136 338 315 31 146 -29 223 -193 248 -70 11 -83 10 -332 -26 -105
-15 -138 -16 -225 -6 -163 18 -241 56 -277 136 -28 61 -25 202 5 336 69 299
829 3249 859 3333 105 293 226 356 652 344 364 -11 522 -63 583 -195 22 -47
27 -75 30 -162 5 -148 -28 -304 -129 -600 -116 -338 -129 -384 -129 -454 0
-74 35 -153 84 -191 99 -76 270 -47 366 62 83 95 102 157 180 583 58 319 118
555 205 801 101 287 118 349 119 439 0 62 -4 83 -24 120 -33 58 -89 96 -174
117 -63 15 -100 15 -440 4 -569 -19 -1811 -25 -2371 -12 -1010 24 -932 24
-1013 2z"/>
<path d="M25810 18733 c-96 -11 -197 -64 -245 -127 -62 -82 -82 -219 -39 -267
41 -46 75 -52 344 -60 275 -8 323 -16 388 -65 44 -34 62 -78 62 -151 0 -75
-22 -228 -54 -373 -47 -217 -834 -3285 -866 -3375 -61 -172 -107 -238 -188
-273 -72 -31 -172 -45 -271 -38 -47 3 -126 9 -176 12 -108 8 -195 -11 -266
-57 -82 -52 -142 -163 -143 -266 -2 -150 97 -175 537 -136 265 23 871 23 1161
0 346 -28 419 -21 508 46 90 68 144 244 101 327 -11 21 -36 45 -63 60 -49 27
-102 30 -405 19 -144 -4 -171 3 -209 54 -26 35 -26 119 -1 253 20 110 211 863
271 1072 236 815 592 1293 1086 1457 296 98 689 92 913 -14 131 -62 212 -153
261 -297 24 -69 28 -99 32 -237 8 -272 -7 -352 -228 -1216 -171 -672 -190
-741 -240 -870 -63 -163 -155 -220 -329 -207 -297 22 -355 19 -442 -25 -77
-39 -136 -123 -158 -228 -14 -67 -2 -119 38 -159 58 -57 126 -62 472 -35 311
24 885 24 1168 -1 282 -24 408 -20 485 18 92 45 150 147 150 266 0 75 -24 114
-94 148 -60 29 -39 28 -380 20 -138 -3 -147 -2 -194 22 -77 39 -91 65 -89 163
2 115 21 198 213 950 184 721 211 835 234 1002 69 501 -15 829 -262 1019 -76
58 -203 121 -307 151 -275 79 -648 93 -952 34 -334 -64 -668 -241 -953 -505
-33 -31 -63 -55 -65 -52 -2 2 92 382 211 843 174 682 216 857 221 933 6 87 5
94 -17 117 -49 52 -77 54 -476 36 -270 -12 -483 -8 -679 13 -16 2 -46 2 -65
-1z"/>
<path d="M23334 17440 c-374 -31 -711 -143 -1011 -336 -292 -188 -568 -475
-758 -789 -321 -528 -508 -1297 -441 -1805 62 -463 297 -797 672 -954 342
-143 839 -153 1280 -26 465 135 857 428 1153 860 119 174 207 355 231 475 17
82 2 136 -54 191 -70 71 -190 80 -286 21 -96 -58 -187 -166 -315 -372 -280
-448 -552 -667 -937 -752 -66 -14 -125 -18 -283 -17 -189 0 -205 2 -290 28
-137 42 -218 89 -311 181 -283 280 -336 733 -159 1343 128 442 318 778 586
1037 220 212 463 344 739 401 119 24 386 30 497 10 199 -35 363 -133 440 -263
24 -41 28 -59 28 -123 0 -86 -19 -124 -77 -152 -18 -9 -68 -33 -111 -53 -95
-45 -187 -128 -239 -215 -64 -108 -82 -244 -43 -321 23 -43 89 -95 146 -115
80 -28 276 -26 382 4 229 65 409 222 514 450 80 173 113 414 79 582 -70 343
-376 595 -823 679 -192 37 -407 47 -609 31z"/>
<path d="M19340 17434 c-229 -26 -354 -51 -505 -101 -496 -164 -959 -560
-1254 -1076 -267 -465 -433 -1088 -418 -1567 6 -191 24 -304 72 -447 147 -441
459 -699 940 -778 136 -23 351 -29 510 -16 533 46 937 239 1321 632 284 291
483 604 484 759 0 119 -105 211 -226 197 -119 -13 -220 -107 -389 -362 -206
-312 -431 -513 -703 -631 -312 -135 -744 -135 -987 1 -355 198 -484 645 -354
1227 l22 98 1256 0 c1335 1 1356 1 1447 48 119 61 187 211 246 541 29 165 31
432 5 564 -97 485 -433 797 -953 888 -114 19 -424 34 -514 23z m270 -510 c206
-37 376 -145 479 -304 82 -127 116 -269 108 -450 -5 -110 -29 -256 -48 -292
-9 -17 -70 -18 -1069 -18 -583 0 -1060 2 -1060 5 0 19 61 158 115 264 303 589
880 899 1475 795z"/>
</g>
</svg>
