<?xml version="1.0" encoding="UTF-8" standalone="no"?>
<!-- Created with Inkscape (http://www.inkscape.org/) -->
<svg
   xmlns:dc="http://purl.org/dc/elements/1.1/"
   xmlns:cc="http://creativecommons.org/ns#"
   xmlns:rdf="http://www.w3.org/1999/02/22-rdf-syntax-ns#"
   xmlns:svg="http://www.w3.org/2000/svg"
   xmlns="http://www.w3.org/2000/svg"
   xmlns:xlink="http://www.w3.org/1999/xlink"
   xmlns:sodipodi="http://sodipodi.sourceforge.net/DTD/sodipodi-0.dtd"
   xmlns:inkscape="http://www.inkscape.org/namespaces/inkscape"
   width="1024"
   height="1176.908"
   id="svg2444"
   sodipodi:version="0.32"
   inkscape:version="0.46"
   version="1.0"
   sodipodi:docname="BiProTech.svg"
   inkscape:output_extension="org.inkscape.output.svg.inkscape">
  <defs
     id="defs2446">
    <linearGradient
       inkscape:collect="always"
       xlink:href="#linearGradient3257"
       id="linearGradient3445"
       gradientUnits="userSpaceOnUse"
       x1="91.619156"
       y1="323.26599"
       x2="88.765251"
       y2="-14.576062" />
    <linearGradient
       inkscape:collect="always"
       xlink:href="#linearGradient3257"
       id="linearGradient3443"
       gradientUnits="userSpaceOnUse"
       x1="91.619156"
       y1="323.26599"
       x2="88.765251"
       y2="-14.576062" />
    <linearGradient
       inkscape:collect="always"
       xlink:href="#linearGradient3257"
       id="linearGradient3441"
       gradientUnits="userSpaceOnUse"
       x1="91.619156"
       y1="323.26599"
       x2="88.765251"
       y2="-14.576062" />
    <linearGradient
       inkscape:collect="always"
       xlink:href="#linearGradient3257"
       id="linearGradient3439"
       gradientUnits="userSpaceOnUse"
       x1="91.619156"
       y1="323.26599"
       x2="88.765251"
       y2="-14.576062" />
    <linearGradient
       inkscape:collect="always"
       xlink:href="#linearGradient3257"
       id="linearGradient3437"
       gradientUnits="userSpaceOnUse"
       x1="91.619156"
       y1="323.26599"
       x2="88.765251"
       y2="-14.576062" />
    <linearGradient
       inkscape:collect="always"
       xlink:href="#linearGradient3257"
       id="linearGradient2675"
       gradientUnits="userSpaceOnUse"
       x1="91.619156"
       y1="323.26599"
       x2="88.765251"
       y2="-14.576062" />
    <linearGradient
       inkscape:collect="always"
       xlink:href="#linearGradient3257"
       id="linearGradient3433"
       gradientUnits="userSpaceOnUse"
       x1="91.619156"
       y1="323.26599"
       x2="88.765251"
       y2="-14.576062" />
    <linearGradient
       inkscape:collect="always"
       xlink:href="#linearGradient3257"
       id="linearGradient3431"
       gradientUnits="userSpaceOnUse"
       x1="91.619156"
       y1="323.26599"
       x2="88.765251"
       y2="-14.576062" />
    <linearGradient
       inkscape:collect="always"
       xlink:href="#linearGradient3257"
       id="linearGradient3429"
       gradientUnits="userSpaceOnUse"
       x1="91.619156"
       y1="323.26599"
       x2="88.765251"
       y2="-14.576062" />
    <linearGradient
       inkscape:collect="always"
       xlink:href="#linearGradient3257"
       id="linearGradient3427"
       gradientUnits="userSpaceOnUse"
       x1="91.619156"
       y1="323.26599"
       x2="88.765251"
       y2="-14.576062" />
    <linearGradient
       inkscape:collect="always"
       xlink:href="#linearGradient3257"
       id="linearGradient3425"
       gradientUnits="userSpaceOnUse"
       x1="91.619156"
       y1="323.26599"
       x2="88.765251"
       y2="-14.576062" />
    <linearGradient
       inkscape:collect="always"
       xlink:href="#linearGradient3257"
       id="linearGradient3423"
       gradientUnits="userSpaceOnUse"
       x1="91.619156"
       y1="323.26599"
       x2="88.765251"
       y2="-14.576062" />
    <linearGradient
       inkscape:collect="always"
       xlink:href="#linearGradient3257"
       id="linearGradient3421"
       gradientUnits="userSpaceOnUse"
       x1="91.619156"
       y1="323.26599"
       x2="88.765251"
       y2="-14.576062" />
    <linearGradient
       inkscape:collect="always"
       xlink:href="#linearGradient3257"
       id="linearGradient3419"
       gradientUnits="userSpaceOnUse"
       x1="91.619156"
       y1="323.26599"
       x2="88.765251"
       y2="-14.576062" />
    <linearGradient
       inkscape:collect="always"
       xlink:href="#linearGradient3257"
       id="linearGradient3417"
       gradientUnits="userSpaceOnUse"
       x1="91.619156"
       y1="323.26599"
       x2="88.765251"
       y2="-14.576062" />
    <linearGradient
       inkscape:collect="always"
       xlink:href="#linearGradient3257"
       id="linearGradient3415"
       gradientUnits="userSpaceOnUse"
       x1="91.619156"
       y1="323.26599"
       x2="88.765251"
       y2="-14.576062" />
    <linearGradient
       inkscape:collect="always"
       xlink:href="#linearGradient3257"
       id="linearGradient3413"
       gradientUnits="userSpaceOnUse"
       x1="91.619156"
       y1="323.26599"
       x2="88.765251"
       y2="-14.576062" />
    <linearGradient
       inkscape:collect="always"
       xlink:href="#linearGradient3257"
       id="linearGradient3411"
       gradientUnits="userSpaceOnUse"
       x1="91.619156"
       y1="323.26599"
       x2="88.765251"
       y2="-14.576062" />
    <filter
       inkscape:collect="always"
       id="filter3333">
      <feGaussianBlur
         inkscape:collect="always"
         stdDeviation="1.0340297"
         id="feGaussianBlur3335" />
    </filter>
    <linearGradient
       inkscape:collect="always"
       id="linearGradient3257">
      <stop
         style="stop-color:#000000;stop-opacity:1;"
         offset="0"
         id="stop3259" />
      <stop
         style="stop-color:#000000;stop-opacity:0;"
         offset="1"
         id="stop3261" />
    </linearGradient>
    <linearGradient
       inkscape:collect="always"
       xlink:href="#linearGradient3257"
       id="linearGradient2673"
       gradientUnits="userSpaceOnUse"
       x1="91.619156"
       y1="323.26599"
       x2="88.765251"
       y2="-14.576062" />
    <inkscape:perspective
       sodipodi:type="inkscape:persp3d"
       inkscape:vp_x="0 : 526.18109 : 1"
       inkscape:vp_y="0 : 1000 : 0"
       inkscape:vp_z="744.09448 : 526.18109 : 1"
       inkscape:persp3d-origin="372.04724 : 350.78739 : 1"
       id="perspective2452" />
  </defs>
  <sodipodi:namedview
     id="base"
     pagecolor="#ffffff"
     bordercolor="#666666"
     borderopacity="1.0"
     gridtolerance="10000"
     guidetolerance="10"
     objecttolerance="10"
     inkscape:pageopacity="0.0"
     inkscape:pageshadow="2"
     inkscape:zoom="0.6253675"
     inkscape:cx="511.99999"
     inkscape:cy="588.45397"
     inkscape:document-units="px"
     inkscape:current-layer="layer1"
     showgrid="false"
     inkscape:window-width="1272"
     inkscape:window-height="951"
     inkscape:window-x="4"
     inkscape:window-y="45"
     units="cm" />
  <metadata
     id="metadata2449">
    <rdf:RDF>
      <cc:Work
         rdf:about="">
        <dc:format>image/svg+xml</dc:format>
        <dc:type
           rdf:resource="http://purl.org/dc/dcmitype/StillImage" />
      </cc:Work>
    </rdf:RDF>
  </metadata>
  <g
     inkscape:label="Layer 1"
     inkscape:groupmode="layer"
     id="layer1"
     transform="translate(-780.72898,883.97435)">
    <g
       id="g2812"
       inkscape:export-filename="H:\Desktop\images\roundcube_logo.gif"
       inkscape:export-xdpi="300.03381"
       inkscape:export-ydpi="300.03381"
       transform="matrix(30.353822,0,0,30.353822,326.85965,-1423.7896)">
      <g
         id="g2760">
        <g
           style="fill:url(#linearGradient2673);fill-opacity:1;stroke:none;filter:url(#filter3333)"
           id="g2250"
           transform="matrix(0.1770742,0,0,0.1770742,13.512007,11.174918)">
          <path
             style="fill:url(#linearGradient3411);fill-opacity:1;stroke:none"
             id="path2252"
             d="M 167.73,251.742 C 171.0445,252.7394 174.4233,253.5859 177.8623,254.2626 L 198.6516,233.4734 L 198.6516,220.8204 L 167.73,251.742 L 167.73,251.742 z" />
          <path
             style="fill:url(#linearGradient3413);fill-opacity:1;stroke:none"
             id="path2254"
             d="M 151.351,245.305 C 154.2167,246.7144 157.1524,248.0014 160.1538,249.1553 L 198.6506,210.6584 L 198.6506,198.0054 L 151.351,245.305 L 151.351,245.305 z" />
          <path
             style="fill:url(#linearGradient3415);fill-opacity:1;stroke:none"
             id="path2256"
             d="M 137.016,236.825 C 139.5135,238.5753 142.0873,240.2234 144.7334,241.7606 L 198.6514,187.8426 L 198.6514,175.1896 L 137.016,236.825 z" />
          <path
             style="fill:url(#linearGradient3417);fill-opacity:1;stroke:none"
             id="path2258"
             d="M 124.467,226.559 C 126.633,228.6183 128.8834,230.5894 131.2138,232.4651 L 198.6513,165.0276 L 198.6513,152.3747 L 124.467,226.559 L 124.467,226.559 z" />
          <path
             style="fill:url(#linearGradient3419);fill-opacity:1;stroke:none"
             id="path2260"
             d="M 113.618,214.593 C 115.4594,216.9552 117.3964,219.24 119.4244,221.4396 L 198.6513,142.2127 L 198.6513,129.5597 L 113.618,214.593 z" />
          <path
             style="fill:url(#linearGradient3421);fill-opacity:1;stroke:none"
             id="path2262"
             d="M 104.511,200.884 C 106.0111,203.5645 107.6218,206.1757 109.3382,208.7098 L 198.6507,119.3973 L 198.6507,106.7443 L 104.511,200.884 L 104.511,200.884 z" />
          <path
             style="fill:url(#linearGradient3423);fill-opacity:1;stroke:none"
             id="path2264"
             d="M 97.3359,185.244 C 98.4456,188.2864 99.6886,191.2658 101.0584,194.1745 L 198.6511,96.5818 L 198.6511,83.9288 L 97.3361,185.2438 L 97.3359,185.244 z" />
          <path
             style="fill:url(#linearGradient3425);fill-opacity:1;stroke:none"
             id="path2266"
             d="M 92.5044,167.26 C 93.1226,170.7534 93.9095,174.1899 94.8575,177.5599 L 198.6515,73.7659 L 198.6515,61.1129 L 92.5045,167.2599 L 92.5044,167.26 z" />
          <path
             style="fill:url(#linearGradient3427);fill-opacity:1;stroke:none"
             id="path2268"
             d="M 153.15,50.8218 C 130.2522,61.5484 111.7022,80.0994 100.9751,102.9967 L 153.15,50.8218 z" />
          <path
             style="fill:url(#linearGradient3429);fill-opacity:1;stroke:none"
             id="path2270"
             d="M 185.24,41.5465 C 179.8133,42.2251 174.511,43.3116 169.3625,44.7711 L 94.9237,119.2098 C 93.4639,124.3585 92.3769,129.6615 91.6982,135.0884 L 185.24,41.5465 L 185.24,41.5465 z" />
          <path
             style="fill:url(#linearGradient3431);fill-opacity:1;stroke:none"
             id="path2272"
             d="M 198.651,40.711 C 197.834,40.711 197.0198,40.7236 196.2071,40.7419 L 90.8931,146.0559 C 90.8747,146.8688 90.8618,147.6832 90.8618,148.5002 C 90.8618,151.802 91.0122,155.069 91.3057,158.2962 L 198.6507,50.9512 L 198.6507,40.7112 L 198.651,40.711 z" />
          <path
             style="fill:url(#linearGradient3433);fill-opacity:1;stroke:none"
             id="path2274"
             d="M 186.67,255.617 C 190.6048,256.0577 194.6016,256.2889 198.6511,256.2889 L 198.6511,243.6359 L 186.67,255.617 L 186.67,255.617 z" />
        </g>
        <g
           id="g11"
           transform="matrix(0.1770742,0,0,0.1770742,13.012264,10.575227)">
          <path
             d="M 167.73,251.742 C 171.0445,252.7394 174.4233,253.5859 177.8623,254.2626 L 198.6516,233.4734 L 198.6516,220.8204 L 167.73,251.742 L 167.73,251.742 z"
             id="_174088056"
             style="fill:#ddc9b5" />
          <path
             d="M 151.351,245.305 C 154.2167,246.7144 157.1524,248.0014 160.1538,249.1553 L 198.6506,210.6584 L 198.6506,198.0054 L 151.351,245.305 L 151.351,245.305 z"
             id="_174267096"
             style="fill:#dbbca0" />
          <path
             d="M 137.016,236.825 C 139.5135,238.5753 142.0873,240.2234 144.7334,241.7606 L 198.6514,187.8426 L 198.6514,175.1896 L 137.016,236.825 z"
             id="_174266632"
             style="fill:#dbbca0" />
          <path
             d="M 124.467,226.559 C 126.633,228.6183 128.8834,230.5894 131.2138,232.4651 L 198.6513,165.0276 L 198.6513,152.3747 L 124.467,226.559 L 124.467,226.559 z"
             id="_174266168"
             style="fill:#d9b28e" />
          <path
             d="M 113.618,214.593 C 115.4594,216.9552 117.3964,219.24 119.4244,221.4396 L 198.6513,142.2127 L 198.6513,129.5597 L 113.618,214.593 z"
             id="_174265904"
             style="fill:#d9b28e" />
          <path
             d="M 104.511,200.884 C 106.0111,203.5645 107.6218,206.1757 109.3382,208.7098 L 198.6507,119.3973 L 198.6507,106.7443 L 104.511,200.884 L 104.511,200.884 z"
             id="_174265640"
             style="fill:#c99870" />
          <path
             d="M 97.3359,185.244 C 98.4456,188.2864 99.6886,191.2658 101.0584,194.1745 L 198.6511,96.5818 L 198.6511,83.9288 L 97.3361,185.2438 L 97.3359,185.244 z"
             id="_20744008"
             style="fill:#c99870" />
          <path
             d="M 92.5044,167.26 C 93.1226,170.7534 93.9095,174.1899 94.8575,177.5599 L 198.6515,73.7659 L 198.6515,61.1129 L 92.5045,167.2599 L 92.5044,167.26 z"
             id="_20743744"
             style="fill:#bb824f" />
          <path
             d="M 153.15,50.8218 C 130.2522,61.5484 111.7022,80.0994 100.9751,102.9967 L 153.15,50.8218 z"
             id="_20743480"
             style="fill:#bb691c" />
          <path
             d="M 185.24,41.5465 C 179.8133,42.2251 174.511,43.3116 169.3625,44.7711 L 94.9237,119.2098 C 93.4639,124.3585 92.3769,129.6615 91.6982,135.0884 L 185.24,41.5465 L 185.24,41.5465 z"
             id="_20743216"
             style="fill:#bb691c" />
          <path
             d="M 198.651,40.711 C 197.834,40.711 197.0198,40.7236 196.2071,40.7419 L 90.8931,146.0559 C 90.8747,146.8688 90.8618,147.6832 90.8618,148.5002 C 90.8618,151.802 91.0122,155.069 91.3057,158.2962 L 198.6507,50.9512 L 198.6507,40.7112 L 198.651,40.711 z"
             id="_174268400"
             style="fill:#bb824f" />
          <path
             d="M 186.67,255.617 C 190.6048,256.0577 194.6016,256.2889 198.6511,256.2889 L 198.6511,243.6359 L 186.67,255.617 L 186.67,255.617 z"
             id="_20741280"
             style="fill:#ddc9b5" />
        </g>
      </g>
      <g
         id="g2746">
        <g
           style="fill:url(#linearGradient2675);fill-opacity:1;stroke:none;filter:url(#filter3333)"
           id="g2276"
           transform="matrix(0.1770742,0,0,0.1770742,13.512007,11.174918)">
          <path
             style="fill:url(#linearGradient3437);fill-opacity:1;stroke:none"
             d="M 25.0459,72.4739 L 188.2869,72.4739 C 190.8934,72.4739 192.3335,75.2275 191.4875,78.5936 L 184.3095,107.1529 C 183.4635,110.519 180.6392,113.2727 178.0327,113.2727 L 14.7917,113.2727 C 12.1853,113.2727 10.7451,110.519 11.5911,107.1529 L 18.7691,78.5936 C 19.6152,75.2275 22.4395,72.4739 25.0459,72.4739 L 25.0459,72.4739 z"
             id="path2278" />
          <path
             style="fill:url(#linearGradient3439);fill-opacity:1;fill-rule:nonzero;stroke:none"
             d="M 188.192,72.8527 L 188.192,72.8527 L 24.951,72.8527 L 25.1414,72.0951 L 188.3824,72.0951 L 188.192,72.8527 z M 191.8687,78.5936 L 191.1069,78.5936 L 191.1069,78.5936 L 191.1776,78.2932 L 191.233,77.9998 L 191.2773,77.7092 L 191.3103,77.4234 L 191.3291,77.1428 L 191.3389,76.8662 L 191.3348,76.597 L 191.3203,76.3342 L 191.2953,76.0781 L 191.2573,75.8292 L 191.2114,75.5862 L 191.1539,75.3526 L 191.0859,75.1259 L 191.0069,74.9093 L 190.9206,74.7003 L 190.8236,74.5023 L 190.7169,74.3126 L 190.6017,74.1333 L 190.4784,73.9645 L 190.347,73.8068 L 190.2067,73.659 L 190.0588,73.5231 L 189.902,73.3993 L 189.7396,73.2881 L 189.5694,73.1871 L 189.392,73.1009 L 189.2088,73.0255 L 189.0177,72.9643 L 188.8209,72.9161 L 188.6188,72.8799 L 188.4095,72.8592 L 188.192,72.8527 L 188.3824,72.0951 L 188.6467,72.1046 L 188.9052,72.1313 L 189.1563,72.1733 L 189.3979,72.2333 L 189.6298,72.3093 L 189.854,72.3995 L 190.0678,72.5065 L 190.2722,72.6253 L 190.4674,72.7601 L 190.651,72.9075 L 190.8257,73.0672 L 190.9898,73.2386 L 191.1442,73.4229 L 191.2877,73.6183 L 191.4199,73.8244 L 191.5408,74.0407 L 191.6512,74.2683 L 191.7515,74.5039 L 191.8381,74.7501 L 191.9143,75.0034 L 191.9792,75.2666 L 192.0333,75.5362 L 192.0727,75.8147 L 192.1021,76.1004 L 192.1182,76.3928 L 192.1209,76.6916 L 192.1133,76.9948 L 192.0899,77.305 L 192.0555,77.6204 L 192.0068,77.9406 L 191.9432,78.2666 L 191.8687,78.5936 L 191.8687,78.5936 L 191.8687,78.5936 z M 183.9289,107.1529 L 183.9289,107.1529 L 191.1069,78.5936 L 191.8687,78.5936 L 184.6907,107.1529 L 183.9289,107.1529 z M 177.9378,113.6515 L 178.1282,112.8939 L 178.1282,112.8939 L 178.3489,112.8874 L 178.5687,112.8667 L 178.7889,112.8305 L 179.0101,112.7823 L 179.2319,112.7211 L 179.453,112.6457 L 179.6737,112.5595 L 179.8947,112.4584 L 180.1131,112.3473 L 180.332,112.2235 L 180.5483,112.0876 L 180.7628,111.9398 L 180.9735,111.7821 L 181.1817,111.6133 L 181.387,111.434 L 181.589,111.2443 L 181.7855,111.0462 L 181.9783,110.8372 L 182.1649,110.6207 L 182.3454,110.3939 L 182.5217,110.1603 L 182.6898,109.9174 L 182.8529,109.6684 L 183.0065,109.4123 L 183.1532,109.1495 L 183.2927,108.8803 L 183.4214,108.6052 L 183.544,108.3231 L 183.6547,108.0373 L 183.7565,107.7467 L 183.8491,107.4518 L 183.9289,107.1529 L 184.6907,107.1529 L 184.6005,107.4814 L 184.5005,107.8059 L 184.3883,108.1261 L 184.2642,108.4415 L 184.132,108.7502 L 183.9869,109.0549 L 183.834,109.3537 L 183.6709,109.6461 L 183.4979,109.9318 L 183.3184,110.2104 L 183.1289,110.4799 L 182.9332,110.7431 L 182.7281,110.9965 L 182.5163,111.2426 L 182.2989,111.4782 L 182.0742,111.7059 L 181.8446,111.9222 L 181.6087,112.1283 L 181.3671,112.3237 L 181.12,112.508 L 180.8697,112.6794 L 180.6148,112.8391 L 180.3571,112.9865 L 180.0941,113.1212 L 179.8299,113.2401 L 179.5624,113.3471 L 179.2929,113.4373 L 179.0227,113.5133 L 178.7511,113.5733 L 178.4787,113.6153 L 178.2069,113.642 L 177.9378,113.6515 L 177.9378,113.6515 L 177.9378,113.6515 z M 14.8868,112.8939 L 14.8868,112.8939 L 178.1278,112.8939 L 177.9374,113.6515 L 14.6964,113.6515 L 14.8868,112.8939 L 14.8868,112.8939 z M 11.2101,107.1529 L 11.9719,107.1529 L 11.9719,107.1529 L 11.9012,107.4533 L 11.8458,107.7467 L 11.8015,108.0373 L 11.7685,108.3231 L 11.7497,108.6037 L 11.7399,108.8803 L 11.744,109.1495 L 11.7586,109.4123 L 11.7835,109.6684 L 11.8215,109.9174 L 11.8674,110.1603 L 11.9249,110.3939 L 11.9929,110.6207 L 12.0719,110.8372 L 12.1583,111.0462 L 12.2552,111.2443 L 12.3619,111.434 L 12.4771,111.6133 L 12.6004,111.7821 L 12.7319,111.9398 L 12.8722,112.0876 L 13.02,112.2235 L 13.1768,112.3473 L 13.3393,112.4584 L 13.5095,112.5595 L 13.6869,112.6457 L 13.87,112.7211 L 14.0612,112.7823 L 14.2579,112.8305 L 14.46,112.8667 L 14.6693,112.8874 L 14.8868,112.8939 L 14.6964,113.6515 L 14.4321,113.642 L 14.1736,113.6153 L 13.9225,113.5733 L 13.681,113.5133 L 13.449,113.4373 L 13.2249,113.3471 L 13.0111,113.2401 L 12.8067,113.1212 L 12.6114,112.9865 L 12.4278,112.8391 L 12.2532,112.6794 L 12.0891,112.508 L 11.9346,112.3237 L 11.7911,112.1283 L 11.6589,111.9222 L 11.538,111.7059 L 11.4277,111.4782 L 11.3273,111.2426 L 11.2407,110.9965 L 11.1645,110.7431 L 11.0996,110.4799 L 11.0455,110.2104 L 11.0061,109.9318 L 10.9768,109.6461 L 10.9606,109.3537 L 10.9579,109.0549 L 10.9655,108.7517 L 10.9889,108.4415 L 11.0233,108.1261 L 11.072,107.8059 L 11.1356,107.4799 L 11.2101,107.1529 L 11.2101,107.1529 L 11.2101,107.1529 z M 18.3881,78.5936 L 19.1499,78.5936 L 11.9719,107.1529 L 11.2101,107.1529 L 18.3881,78.5936 L 18.3881,78.5936 z M 25.141,72.0951 L 24.9506,72.8527 L 24.9506,72.8527 L 24.7299,72.8592 L 24.5101,72.8799 L 24.2899,72.9161 L 24.0688,72.9643 L 23.847,73.0255 L 23.6259,73.1009 L 23.4052,73.1871 L 23.1842,73.2881 L 22.9658,73.3993 L 22.7469,73.5231 L 22.5306,73.659 L 22.3161,73.8068 L 22.1054,73.9645 L 21.8972,74.1333 L 21.6919,74.3126 L 21.4899,74.5023 L 21.2933,74.7003 L 21.1019,74.9093 L 20.914,75.1259 L 20.732,75.3526 L 20.5572,75.5862 L 20.389,75.8292 L 20.226,76.0781 L 20.0724,76.3342 L 19.9256,76.597 L 19.7862,76.8662 L 19.657,77.1428 L 19.5348,77.4234 L 19.4241,77.7092 L 19.3223,77.9998 L 19.2298,78.2947 L 19.1499,78.5936 L 18.3881,78.5936 L 18.4784,78.2651 L 18.5783,77.9406 L 18.6905,77.6204 L 18.8146,77.305 L 18.9472,76.9948 L 19.092,76.6916 L 19.2448,76.3928 L 19.408,76.1004 L 19.581,75.8147 L 19.7604,75.5362 L 19.95,75.2666 L 20.1472,75.0034 L 20.3508,74.7501 L 20.5611,74.5039 L 20.7799,74.2683 L 21.0047,74.0407 L 21.2343,73.8244 L 21.4702,73.6183 L 21.7118,73.4229 L 21.9589,73.2386 L 22.2092,73.0672 L 22.4641,72.9075 L 22.7218,72.7601 L 22.9848,72.6253 L 23.249,72.5065 L 23.5165,72.3995 L 23.786,72.3093 L 24.0562,72.2333 L 24.3277,72.1733 L 24.6001,72.1313 L 24.8719,72.1046 L 25.141,72.0951 L 25.141,72.0951 L 25.141,72.0951 z"
             id="path2280" />
        </g>
        <path
           d="M 96.4576,83.9478 C 96.7915,82.6412 96.8191,81.8208 96.5451,81.4728 C 96.2785,81.1241 95.5318,80.95 94.3121,80.95 C 92.4827,80.95 91.1963,81.2114 90.4533,81.7338 C 89.708,82.2638 89.1455,83.273 88.7618,84.7757 C 88.621,85.3272 88.4921,86.0023 88.3752,86.8011 C 88.2531,87.5921 88.1647,88.1077 88.1037,88.3472 C 87.9647,88.8918 87.6829,89.3418 87.2545,89.712 C 86.8262,90.0822 86.3878,90.2638 85.9375,90.2638 C 85.4801,90.2638 85.1672,90.0966 84.9838,89.7626 C 84.8005,89.4287 84.7757,88.986 84.9165,88.4344 C 84.9666,88.2384 85.1712,87.6065 85.5311,86.5397 C 85.8814,85.4798 86.1713,84.5143 86.3921,83.6501 C 86.5049,83.2077 86.6172,82.5977 86.7413,81.7992 C 86.8564,81.0079 86.9592,80.4344 87.0501,80.0786 C 87.2318,79.3673 87.5703,78.8374 88.0603,78.4816 C 88.5574,78.1258 89.2192,77.9516 90.0393,77.9516 C 90.1122,77.9516 90.3209,77.9588 90.6729,77.9732 C 93.0153,78.0676 95.4342,78.1186 97.9461,78.1186 L 101.7934,78.1186 C 104.3781,78.1186 106.8374,78.0676 109.1843,77.9732 C 109.5076,77.9588 109.7054,77.9516 109.7563,77.9516 C 110.5621,77.9516 111.1202,78.1258 111.4233,78.4744 C 111.7334,78.8227 111.7941,79.3529 111.6087,80.0786 C 111.5181,80.4344 111.3281,81.0079 111.046,81.7992 C 110.7552,82.5977 110.5557,83.2077 110.4426,83.6501 C 110.2221,84.5143 110.0194,85.4798 109.8358,86.5397 C 109.6432,87.6065 109.5255,88.2384 109.4754,88.4344 C 109.3309,89.0007 109.0853,89.4506 108.7476,89.7773 C 108.4103,90.104 108.0139,90.2638 107.5637,90.2638 C 107.099,90.2638 106.7461,90.0822 106.5138,89.712 C 106.2818,89.3418 106.2372,88.8918 106.3762,88.3472 C 106.4372,88.1077 106.6123,87.5921 106.9016,86.8011 C 107.1854,86.0023 107.401,85.3272 107.5421,84.7757 C 107.9258,83.273 107.8714,82.2638 107.3895,81.7338 C 106.9059,81.2114 105.7311,80.95 103.8583,80.95 C 102.7258,80.95 101.9336,81.1241 101.4817,81.4728 C 101.0297,81.8208 100.6388,82.6412 100.3052,83.9478 L 95.8286,101.4795 C 95.5358,102.6264 95.541,103.4033 95.849,103.817 C 96.159,104.2237 96.8401,104.427 97.9075,104.427 C 98.1614,104.427 98.5213,104.3835 98.9934,104.2963 C 99.4565,104.2165 99.8017,104.1728 100.0124,104.1728 C 100.6368,104.1728 101.0824,104.3035 101.3441,104.5574 C 101.604,104.8187 101.6673,105.1964 101.5375,105.7045 C 101.3875,106.2926 101.1094,106.7278 100.705,107.0039 C 100.2988,107.2872 99.7625,107.425 99.1019,107.425 C 98.6445,107.425 97.6867,107.3669 96.2281,107.2506 C 94.7678,107.1418 93.5121,107.0836 92.4666,107.0836 C 91.5883,107.0836 90.383,107.1418 88.8525,107.2506 C 87.3202,107.3669 86.2456,107.425 85.6356,107.425 C 84.9602,107.425 84.4876,107.2872 84.2294,107.0183 C 83.9732,106.7425 83.921,106.3217 84.0676,105.748 C 84.1862,105.2833 84.4349,104.906 84.8212,104.6155 C 85.2092,104.3181 85.6456,104.1728 86.1249,104.1728 C 86.3572,104.1728 86.7234,104.2165 87.2329,104.2963 C 87.7407,104.3835 88.1434,104.427 88.4408,104.427 C 89.5226,104.427 90.3059,104.2309 90.7909,103.8388 C 91.2849,103.4396 91.681,102.6554 91.9813,101.4795 L 96.4576,83.9478 L 96.4576,83.9478 z M 111.7581,96.9785 L 111.7247,97.1092 C 111.113,99.5048 111.2172,101.4286 112.0319,102.8731 C 112.8463,104.3181 114.2289,105.0438 116.1889,105.0438 C 117.3793,105.0438 118.4351,104.8331 119.3575,104.4051 C 120.2873,103.9767 121.2018,103.2942 122.1126,102.3434 C 122.465,101.9585 122.8818,101.3779 123.3651,100.5941 C 124.1044,99.4322 124.8044,98.8516 125.4726,98.8516 C 125.8931,98.8516 126.2118,98.9967 126.4211,99.2872 C 126.6301,99.5776 126.6825,99.9406 126.5693,100.3833 C 126.4395,100.8914 126.1024,101.5302 125.5684,102.2852 C 125.0324,103.0475 124.3896,103.8026 123.6308,104.5574 C 122.4632,105.6901 121.2047,106.5246 119.8532,107.0692 C 118.5039,107.6064 116.9832,107.8753 115.2992,107.8753 C 112.2861,107.8753 110.1648,106.8585 108.9198,104.8259 C 107.6765,102.7861 107.4914,100.0422 108.3757,96.5795 C 109.256,93.1312 110.8404,90.3945 113.1255,88.3544 C 115.4085,86.3218 118.0488,85.3056 121.0619,85.3056 C 123.9509,85.3056 126.0374,86.1764 127.3293,87.9117 C 128.614,89.6466 128.8846,91.9697 128.1431,94.8736 C 127.9301,95.7082 127.6422,96.2672 127.2867,96.5504 C 126.9312,96.8334 126.3428,96.9785 125.5221,96.9785 L 124.7745,96.9785 L 111.7581,96.9785 L 111.7581,96.9785 z M 112.6804,94.1911 L 124.7022,94.1911 L 124.7728,93.9151 C 125.2141,92.1873 125.027,90.7866 124.2218,89.7045 C 123.4069,88.6305 122.1285,88.093 120.3863,88.093 C 118.6729,88.093 117.1257,88.6377 115.7517,89.7264 C 114.3682,90.8228 113.3512,92.3036 112.6804,94.1911 L 112.6804,94.1911 z M 130.6844,96.5795 C 131.5834,93.0587 133.1948,90.3001 135.5251,88.2819 C 137.8533,86.2709 140.6013,85.2619 143.7661,85.2619 C 146.3143,85.2619 148.224,85.8572 149.49,87.0406 C 150.756,88.2237 151.1452,89.7698 150.6596,91.672 C 150.3778,92.7754 149.8412,93.6537 149.0429,94.3071 C 148.2444,94.9606 147.3045,95.287 146.2227,95.287 C 145.4895,95.287 144.9587,95.12 144.6446,94.7864 C 144.3234,94.4525 144.2405,93.9804 144.3962,93.3707 C 144.5019,92.957 144.7051,92.5869 145.003,92.2454 C 145.3007,91.9043 145.6761,91.6283 146.109,91.4106 C 146.1928,91.3669 146.3111,91.3306 146.4599,91.2872 C 146.8056,91.1568 147.0135,90.9679 147.0783,90.7137 C 147.2524,90.0312 146.9746,89.4143 146.2498,88.87 C 145.5246,88.3253 144.5571,88.0496 143.3521,88.0496 C 141.1088,88.0496 139.1755,88.8265 137.5376,90.3798 C 135.8993,91.9334 134.7173,94.1186 133.9962,96.9422 C 133.3661,99.4106 133.4625,101.3923 134.2784,102.8877 C 135.0942,104.3835 136.4788,105.1311 138.4389,105.1311 C 139.7602,105.1311 140.9194,104.855 141.9223,104.3107 C 142.9327,103.7663 143.8573,102.9021 144.7129,101.7118 C 144.9124,101.4432 145.1812,101.0149 145.5327,100.4343 C 146.3548,99.0911 147.1298,98.4161 147.8486,98.4161 C 148.3057,98.4161 148.6463,98.5615 148.8699,98.8516 C 149.0933,99.1418 149.1457,99.5048 149.0326,99.9478 C 148.8659,100.6013 148.4951,101.3704 147.9205,102.2565 C 147.346,103.1419 146.694,103.9333 145.9605,104.6446 C 144.8404,105.7045 143.5749,106.5102 142.1799,107.0546 C 140.778,107.5992 139.2483,107.8753 137.6075,107.8753 C 134.5875,107.8753 132.4588,106.8585 131.2117,104.8331 C 129.9722,102.8077 129.7963,100.0566 130.6844,96.5795 L 130.6844,96.5795 z M 158.9596,85.0949 C 159.5103,82.9388 159.6732,81.6469 159.4501,81.2114 C 159.2259,80.7827 158.6061,80.5651 157.5824,80.5651 L 156.2467,80.5651 C 155.6805,80.5651 155.2979,80.4707 155.1051,80.2891 C 154.9136,80.1005 154.8682,79.7957 154.9755,79.3745 C 155.0887,78.9318 155.3207,78.5904 155.6724,78.3509 C 156.0239,78.1114 156.4765,77.9879 157.0283,77.9879 C 157.0574,77.9879 157.3058,78.0098 157.7667,78.0532 C 158.2347,78.0967 158.7008,78.1186 159.1654,78.1186 C 160.189,78.1186 161.2147,78.0823 162.2568,78.0098 C 162.4422,77.9951 162.5599,77.9879 162.6037,77.9879 C 163.1408,77.9879 163.4759,78.0967 163.6092,78.3146 C 163.7476,78.5397 163.7068,79.0697 163.4934,79.9045 L 161.16,89.0441 C 162.4001,87.8535 163.661,86.9824 164.9414,86.4306 C 166.2221,85.8788 167.6136,85.603 169.1019,85.603 C 172.0494,85.603 173.991,86.329 174.9343,87.781 C 175.8777,89.233 175.9303,91.5848 175.1019,94.8299 L 173.3427,101.719 C 173.0019,103.0547 172.9193,103.8898 173.0955,104.2237 C 173.2713,104.5574 173.7878,104.7243 174.6373,104.7243 C 174.8042,104.7243 175.0201,104.7024 175.278,104.659 C 175.5435,104.6155 175.7087,104.5936 175.7956,104.5936 C 176.3909,104.5936 176.8167,104.7171 177.0677,104.9566 C 177.317,105.2036 177.3748,105.5738 177.2505,106.0603 C 177.1339,106.5174 176.918,106.8513 176.6065,107.0474 C 176.2951,107.2434 175.8356,107.3378 175.2257,107.3378 C 175.0659,107.3378 174.4818,107.2944 173.4734,107.2071 C 172.4555,107.1274 171.5157,107.0836 170.6374,107.0836 C 169.5847,107.0836 168.4844,107.1274 167.3318,107.2071 C 166.1697,107.2944 165.5488,107.3378 165.4691,107.3378 C 164.9679,107.3378 164.6201,107.2218 164.4112,106.9892 C 164.1996,106.7644 164.1452,106.4377 164.2528,106.0168 C 164.3769,105.5303 164.6075,105.1673 164.9408,104.9422 C 165.2759,104.7099 165.7267,104.5936 166.2929,104.5936 C 166.5471,104.5936 166.839,104.6155 167.1692,104.659 C 167.4994,104.7024 167.7043,104.7243 167.7913,104.7243 C 168.3869,104.7243 168.8267,104.5645 169.1062,104.2381 C 169.3857,103.9114 169.7024,103.0691 170.047,101.719 L 171.6262,95.534 C 172.2955,92.9136 172.3381,91.0405 171.7577,89.9296 C 171.1774,88.819 169.8973,88.26 167.9081,88.26 C 165.6432,88.26 163.7825,89.0369 162.3385,90.5977 C 160.8874,92.1585 159.7328,94.6338 158.8672,98.024 L 157.9236,101.719 C 157.579,103.0691 157.4656,103.9114 157.5781,104.2381 C 157.6907,104.5645 158.0491,104.7243 158.6444,104.7243 C 158.7316,104.7243 158.955,104.7024 159.3142,104.659 C 159.6741,104.6155 159.97,104.5936 160.2095,104.5936 C 160.7832,104.5936 161.1669,104.7099 161.3765,104.9422 C 161.5875,105.1673 161.6327,105.5303 161.5086,106.0168 C 161.3975,106.4521 161.1833,106.7788 160.8644,107.0039 C 160.5457,107.229 160.1332,107.3378 159.6395,107.3378 C 159.5526,107.3378 158.9538,107.2944 157.8435,107.2071 C 156.7315,107.1274 155.6463,107.0836 154.601,107.0836 C 153.7371,107.0836 152.7676,107.1274 151.7094,107.2071 C 150.6417,107.2944 150.0352,107.3378 149.8754,107.3378 C 149.2657,107.3378 148.8541,107.2434 148.6428,107.0474 C 148.4315,106.8513 148.386,106.5174 148.5029,106.0603 C 148.627,105.5738 148.8742,105.2036 149.2349,104.9566 C 149.5936,104.7171 150.068,104.5936 150.6633,104.5936 C 150.8231,104.5936 151.0278,104.6155 151.2926,104.659 C 151.5574,104.7024 151.7477,104.7243 151.864,104.7243 C 152.6988,104.7243 153.297,104.5717 153.6488,104.2744 C 154.0005,103.9767 154.3555,103.1272 154.715,101.719 L 158.9596,85.0949 L 158.9596,85.0949 z"
           id="path2282"
           style="fill:url(#linearGradient3441);fill-opacity:1;stroke:none;filter:url(#filter3333)"
           transform="matrix(0.1770742,0,0,0.1770742,13.512007,11.174918)" />
        <path
           d="M 177.246,79.6014 L 176.6156,79.6014 L 176.6156,80.8734 L 177.2638,80.8734 C 177.6222,80.8734 177.8761,80.8259 178.0284,80.7304 C 178.181,80.6316 178.2555,80.4765 178.2555,80.2583 C 178.2555,80.0254 178.1746,79.861 178.0166,79.7568 C 177.858,79.652 177.6015,79.6014 177.246,79.6014 z M 177.3594,79.1981 C 177.8793,79.1981 178.2645,79.2815 178.5152,79.4491 C 178.7691,79.6132 178.8946,79.8671 178.8946,80.2076 C 178.8946,80.4675 178.8169,80.6854 178.6617,80.8587 C 178.5094,81.032 178.2973,81.1423 178.0316,81.1901 L 178.8557,82.8721 L 178.1689,82.8721 L 177.3983,81.277 L 176.6156,81.277 L 176.6156,82.8721 L 175.9972,82.8721 L 175.9972,79.1981 L 177.3594,79.1981 L 177.3594,79.1981 z M 180.1013,81.1098 C 180.1013,80.7211 180.0325,80.357 179.892,80.0107 C 179.7519,79.667 179.5515,79.3593 179.289,79.0964 C 179.0141,78.8247 178.7063,78.6186 178.3658,78.4784 C 178.0224,78.3379 177.6579,78.266 177.2667,78.266 C 176.8813,78.266 176.5232,78.3348 176.1884,78.4721 C 175.8542,78.6097 175.5554,78.8069 175.2986,79.0697 C 175.0237,79.3475 174.8147,79.6578 174.6682,80.0044 C 174.5219,80.3509 174.4503,80.7122 174.4503,81.0916 C 174.4503,81.4621 174.5219,81.8176 174.6653,82.1579 C 174.8058,82.4984 175.0116,82.8061 175.2805,83.0779 C 175.5464,83.3467 175.8481,83.5528 176.1884,83.6933 C 176.5289,83.8364 176.8844,83.9084 177.2581,83.9084 C 177.6401,83.9084 178.0016,83.8364 178.3479,83.6962 C 178.6914,83.556 179.0051,83.3499 179.28,83.0779 C 179.5457,82.8151 179.749,82.5165 179.8895,82.1789 C 180.0296,81.8415 180.1013,81.486 180.1013,81.1098 L 180.1013,81.1098 z M 177.2728,77.8719 C 177.7089,77.8719 178.124,77.9525 178.5123,78.1137 C 178.9038,78.2752 179.253,78.5109 179.5636,78.8215 C 179.8624,79.1175 180.0895,79.4609 180.2476,79.8521 C 180.4059,80.2404 180.4865,80.6526 180.4865,81.0859 C 180.4865,81.5277 180.4059,81.94 180.2476,82.3254 C 180.0895,82.7106 179.8592,83.0508 179.5547,83.3436 C 179.238,83.6545 178.8825,83.8902 178.4884,84.0546 C 178.0969,84.219 177.6907,84.3027 177.2728,84.3027 C 176.8487,84.3027 176.4423,84.2218 176.0542,84.0578 C 175.663,83.8934 175.3133,83.6576 175.0058,83.3436 C 174.6981,83.0422 174.4649,82.6956 174.3069,82.3073 C 174.1457,81.9192 174.0648,81.5128 174.0648,81.0859 C 174.0648,80.6584 174.1486,80.2465 174.3127,79.8521 C 174.4802,79.4609 174.7188,79.1085 175.0329,78.795 C 175.3254,78.4931 175.6659,78.266 176.0453,78.1079 C 176.4273,77.9493 176.8367,77.8719 177.2728,77.8719 L 177.2728,77.8719 z"
           id="path2284"
           style="fill:url(#linearGradient3443);fill-opacity:1;stroke:none;filter:url(#filter3333)"
           transform="matrix(0.1770742,0,0,0.1770742,13.512007,11.174918)" />
        <path
           d="M 27.1648,101.567 L 31.8553,83.4403 C 32.0827,82.562 32.072,81.9011 31.8181,81.4515 C 31.5625,81.0084 31.0763,80.7833 30.3503,80.7833 C 29.9582,80.7833 29.4608,80.8268 28.8664,80.9068 C 28.263,80.994 27.8888,81.0375 27.7365,81.0375 C 27.2212,81.0375 26.8628,80.9068 26.6455,80.6526 C 26.4282,80.3985 26.3749,80.0427 26.4915,79.5927 C 26.636,79.034 26.8939,78.6272 27.2609,78.3587 C 27.628,78.0901 28.1211,77.9519 28.7455,77.9519 C 28.9997,77.9519 29.7377,78.0173 30.9471,78.1407 C 32.1618,78.2714 33.2557,78.3368 34.2137,78.3368 C 35.2521,78.3368 36.7573,78.2714 38.722,78.1407 C 40.6921,78.0173 42.1245,77.9519 43.0322,77.9519 C 46.2698,77.9519 48.5494,78.5691 49.8707,79.8032 C 51.1992,81.0375 51.5443,82.8741 50.9133,85.3131 C 50.5057,86.8886 49.7484,88.188 48.6395,89.2186 C 47.5324,90.2425 46.1362,90.9247 44.458,91.2659 C 46.3233,91.7452 47.6112,92.66 48.3401,93.9954 C 49.0612,95.3311 49.1666,97.0007 48.6464,99.0117 C 47.955,101.6833 46.4431,103.7666 44.1033,105.2621 C 41.769,106.7647 38.8458,107.5126 35.3468,107.5126 C 34.5917,107.5126 33.3291,107.4544 31.5424,107.3456 C 29.7559,107.2368 28.3335,107.1786 27.288,107.1786 C 26.0539,107.1786 24.7465,107.2368 23.3754,107.3456 C 21.9971,107.4544 21.2342,107.5126 21.0963,107.5126 C 20.472,107.5126 20.0485,107.3819 19.8205,107.1133 C 19.5905,106.8519 19.545,106.438 19.6895,105.8792 C 19.8041,105.4365 20.0396,105.0879 20.3865,104.8409 C 20.7316,104.6014 21.1556,104.4779 21.6709,104.4779 C 21.8816,104.4779 22.2475,104.5217 22.7642,104.6014 C 23.2789,104.6886 23.6885,104.7321 23.9862,104.7321 C 24.8504,104.7321 25.5182,104.507 25.9923,104.0499 C 26.4644,103.5996 26.853,102.772 27.1648,101.567 L 27.1648,101.567 z M 30.7464,101.8647 C 30.4496,103.0115 30.5936,103.7741 31.1837,104.1587 C 31.7738,104.5433 33.2788,104.7321 35.7032,104.7321 C 38.2441,104.7321 40.2811,104.2387 41.807,103.2513 C 43.3382,102.2714 44.3567,100.8048 44.8601,98.8591 C 45.399,96.7759 45.0927,95.2657 43.9485,94.3296 C 42.797,93.3929 40.6668,92.9283 37.5452,92.9283 C 35.5633,92.9283 34.2716,93.0952 33.6844,93.4292 C 33.0968,93.7631 32.6567,94.4819 32.3711,95.5852 L 30.7464,101.8647 L 30.7464,101.8647 z M 34.1162,88.8415 C 34.0016,89.2839 34.1588,89.6035 34.5799,89.7995 C 35.0082,89.9955 35.7443,90.0971 36.7896,90.0971 C 38.0527,90.0971 39.1201,90.0681 40.001,90.0027 C 40.889,89.9374 41.6559,89.8358 42.3177,89.6907 C 43.4139,89.4656 44.4151,88.9068 45.3196,88.0211 C 46.2312,87.1353 46.8334,86.1264 47.1265,84.9939 C 47.5116,83.5057 47.2088,82.4313 46.2183,81.7704 C 45.2274,81.1101 43.3958,80.7833 40.7313,80.7833 C 38.7568,80.7833 37.4741,80.9431 36.8615,81.2626 C 36.2561,81.5819 35.835,82.1988 35.5964,83.1211 L 34.1162,88.8415 L 34.1162,88.8415 z M 57.2907,102.0754 L 62.1107,83.4475 C 62.3398,82.562 62.3278,81.9086 62.0776,81.4731 C 61.8254,81.0447 61.3444,80.8268 60.6184,80.8268 C 60.2119,80.8268 59.7033,80.8849 59.1017,80.994 C 58.4908,81.1101 58.1128,81.1682 57.9603,81.1682 C 57.4594,81.1682 57.105,81.0228 56.8877,80.7399 C 56.6706,80.4566 56.6252,80.0717 56.7492,79.5927 C 56.8917,79.0412 57.1514,78.6272 57.5184,78.3587 C 57.8857,78.0901 58.3788,77.9519 59.0032,77.9519 C 59.2568,77.9519 59.9952,78.0173 61.2192,78.1407 C 62.4412,78.2714 63.5276,78.3368 64.4787,78.3368 C 65.553,78.3368 67.0435,78.2714 68.9507,78.1407 C 70.8555,78.0173 72.2081,77.9519 73.0211,77.9519 C 76.3096,77.9519 78.601,78.6635 79.9045,80.0792 C 81.2004,81.4949 81.4889,83.6073 80.7675,86.3949 C 80.3769,87.9048 79.7974,89.1898 79.0348,90.2569 C 78.2706,91.3312 77.2645,92.246 76.0125,93.0155 C 74.9797,93.6687 73.8521,94.1261 72.6356,94.3949 C 71.4191,94.6635 69.605,94.8014 67.195,94.8014 C 66.6938,94.8014 66.1587,94.7942 65.5671,94.7795 C 64.9827,94.7651 64.6433,94.7579 64.5417,94.7579 C 63.8667,94.7579 63.3905,94.8305 63.13,94.9681 C 62.8672,95.1134 62.6758,95.4039 62.5632,95.8394 L 60.9495,102.0754 C 60.7016,103.0334 60.7105,103.7013 60.9886,104.0571 C 61.2647,104.4201 61.864,104.6014 62.7857,104.6014 C 63.0255,104.6014 63.4142,104.5579 63.945,104.4707 C 64.4738,104.391 64.8627,104.3475 65.1022,104.3475 C 65.5593,104.3475 65.9048,104.4998 66.1399,104.7974 C 66.3751,105.0951 66.4298,105.4728 66.3135,105.9227 C 66.18,106.438 65.8679,106.83 65.3682,107.1061 C 64.8777,107.3747 64.2251,107.5126 63.4121,107.5126 C 62.8603,107.5126 61.9316,107.4544 60.6311,107.3456 C 59.3236,107.2368 58.2933,107.1786 57.5455,107.1786 C 56.3405,107.1786 55.0479,107.2368 53.6622,107.3456 C 52.2764,107.4544 51.5063,107.5126 51.3541,107.5126 C 50.7297,107.5126 50.3062,107.3819 50.0777,107.1133 C 49.848,106.8519 49.8028,106.438 49.9473,105.8792 C 50.0639,105.429 50.3028,105.066 50.6684,104.7756 C 51.0319,104.4926 51.4468,104.3475 51.9189,104.3475 C 52.1874,104.3475 52.5464,104.391 53.005,104.4707 C 53.4543,104.5579 53.7914,104.6014 54.0237,104.6014 C 54.9601,104.6014 55.6787,104.4054 56.1867,104.0136 C 56.6856,103.6287 57.0561,102.9825 57.2907,102.0754 L 57.2907,102.0754 z M 63.9099,90.6346 C 63.7786,91.1424 63.85,91.4838 64.1281,91.6433 C 64.4044,91.8105 65.1531,91.8902 66.3728,91.8902 C 69.879,91.8902 72.3852,91.491 73.908,90.6852 C 75.4285,89.8867 76.4443,88.4857 76.9608,86.4894 C 77.4907,84.4421 77.2855,82.9904 76.3548,82.1262 C 75.4239,81.2626 73.5766,80.8268 70.8108,80.8268 C 68.7926,80.8268 67.5263,80.9794 66.9992,81.277 C 66.4793,81.5747 66.0852,82.2278 65.8204,83.2518 L 63.9099,90.6346 L 63.9099,90.6346 z"
           id="path2286"
           style="fill:url(#linearGradient3445);fill-opacity:1;stroke:none;filter:url(#filter3333)"
           transform="matrix(0.1770742,0,0,0.1770742,13.512007,11.174918)" />
        <g
           id="g39"
           transform="matrix(0.1770742,0,0,0.1770742,13.012264,10.575227)">
          <path
             id="path41"
             d="M 25.0459,72.4739 L 188.2869,72.4739 C 190.8934,72.4739 192.3335,75.2275 191.4875,78.5936 L 184.3095,107.1529 C 183.4635,110.519 180.6392,113.2727 178.0327,113.2727 L 14.7917,113.2727 C 12.1853,113.2727 10.7451,110.519 11.5911,107.1529 L 18.7691,78.5936 C 19.6152,75.2275 22.4395,72.4739 25.0459,72.4739 L 25.0459,72.4739 z"
             style="fill:#ffffff" />
          <path
             id="path43"
             d="M 188.192,72.8527 L 188.192,72.8527 L 24.951,72.8527 L 25.1414,72.0951 L 188.3824,72.0951 L 188.192,72.8527 z M 191.8687,78.5936 L 191.1069,78.5936 L 191.1069,78.5936 L 191.1776,78.2932 L 191.233,77.9998 L 191.2773,77.7092 L 191.3103,77.4234 L 191.3291,77.1428 L 191.3389,76.8662 L 191.3348,76.597 L 191.3203,76.3342 L 191.2953,76.0781 L 191.2573,75.8292 L 191.2114,75.5862 L 191.1539,75.3526 L 191.0859,75.1259 L 191.0069,74.9093 L 190.9206,74.7003 L 190.8236,74.5023 L 190.7169,74.3126 L 190.6017,74.1333 L 190.4784,73.9645 L 190.347,73.8068 L 190.2067,73.659 L 190.0588,73.5231 L 189.902,73.3993 L 189.7396,73.2881 L 189.5694,73.1871 L 189.392,73.1009 L 189.2088,73.0255 L 189.0177,72.9643 L 188.8209,72.9161 L 188.6188,72.8799 L 188.4095,72.8592 L 188.192,72.8527 L 188.3824,72.0951 L 188.6467,72.1046 L 188.9052,72.1313 L 189.1563,72.1733 L 189.3979,72.2333 L 189.6298,72.3093 L 189.854,72.3995 L 190.0678,72.5065 L 190.2722,72.6253 L 190.4674,72.7601 L 190.651,72.9075 L 190.8257,73.0672 L 190.9898,73.2386 L 191.1442,73.4229 L 191.2877,73.6183 L 191.4199,73.8244 L 191.5408,74.0407 L 191.6512,74.2683 L 191.7515,74.5039 L 191.8381,74.7501 L 191.9143,75.0034 L 191.9792,75.2666 L 192.0333,75.5362 L 192.0727,75.8147 L 192.1021,76.1004 L 192.1182,76.3928 L 192.1209,76.6916 L 192.1133,76.9948 L 192.0899,77.305 L 192.0555,77.6204 L 192.0068,77.9406 L 191.9432,78.2666 L 191.8687,78.5936 L 191.8687,78.5936 L 191.8687,78.5936 z M 183.9289,107.1529 L 183.9289,107.1529 L 191.1069,78.5936 L 191.8687,78.5936 L 184.6907,107.1529 L 183.9289,107.1529 z M 177.9378,113.6515 L 178.1282,112.8939 L 178.1282,112.8939 L 178.3489,112.8874 L 178.5687,112.8667 L 178.7889,112.8305 L 179.0101,112.7823 L 179.2319,112.7211 L 179.453,112.6457 L 179.6737,112.5595 L 179.8947,112.4584 L 180.1131,112.3473 L 180.332,112.2235 L 180.5483,112.0876 L 180.7628,111.9398 L 180.9735,111.7821 L 181.1817,111.6133 L 181.387,111.434 L 181.589,111.2443 L 181.7855,111.0462 L 181.9783,110.8372 L 182.1649,110.6207 L 182.3454,110.3939 L 182.5217,110.1603 L 182.6898,109.9174 L 182.8529,109.6684 L 183.0065,109.4123 L 183.1532,109.1495 L 183.2927,108.8803 L 183.4214,108.6052 L 183.544,108.3231 L 183.6547,108.0373 L 183.7565,107.7467 L 183.8491,107.4518 L 183.9289,107.1529 L 184.6907,107.1529 L 184.6005,107.4814 L 184.5005,107.8059 L 184.3883,108.1261 L 184.2642,108.4415 L 184.132,108.7502 L 183.9869,109.0549 L 183.834,109.3537 L 183.6709,109.6461 L 183.4979,109.9318 L 183.3184,110.2104 L 183.1289,110.4799 L 182.9332,110.7431 L 182.7281,110.9965 L 182.5163,111.2426 L 182.2989,111.4782 L 182.0742,111.7059 L 181.8446,111.9222 L 181.6087,112.1283 L 181.3671,112.3237 L 181.12,112.508 L 180.8697,112.6794 L 180.6148,112.8391 L 180.3571,112.9865 L 180.0941,113.1212 L 179.8299,113.2401 L 179.5624,113.3471 L 179.2929,113.4373 L 179.0227,113.5133 L 178.7511,113.5733 L 178.4787,113.6153 L 178.2069,113.642 L 177.9378,113.6515 L 177.9378,113.6515 L 177.9378,113.6515 z M 14.8868,112.8939 L 14.8868,112.8939 L 178.1278,112.8939 L 177.9374,113.6515 L 14.6964,113.6515 L 14.8868,112.8939 L 14.8868,112.8939 z M 11.2101,107.1529 L 11.9719,107.1529 L 11.9719,107.1529 L 11.9012,107.4533 L 11.8458,107.7467 L 11.8015,108.0373 L 11.7685,108.3231 L 11.7497,108.6037 L 11.7399,108.8803 L 11.744,109.1495 L 11.7586,109.4123 L 11.7835,109.6684 L 11.8215,109.9174 L 11.8674,110.1603 L 11.9249,110.3939 L 11.9929,110.6207 L 12.0719,110.8372 L 12.1583,111.0462 L 12.2552,111.2443 L 12.3619,111.434 L 12.4771,111.6133 L 12.6004,111.7821 L 12.7319,111.9398 L 12.8722,112.0876 L 13.02,112.2235 L 13.1768,112.3473 L 13.3393,112.4584 L 13.5095,112.5595 L 13.6869,112.6457 L 13.87,112.7211 L 14.0612,112.7823 L 14.2579,112.8305 L 14.46,112.8667 L 14.6693,112.8874 L 14.8868,112.8939 L 14.6964,113.6515 L 14.4321,113.642 L 14.1736,113.6153 L 13.9225,113.5733 L 13.681,113.5133 L 13.449,113.4373 L 13.2249,113.3471 L 13.0111,113.2401 L 12.8067,113.1212 L 12.6114,112.9865 L 12.4278,112.8391 L 12.2532,112.6794 L 12.0891,112.508 L 11.9346,112.3237 L 11.7911,112.1283 L 11.6589,111.9222 L 11.538,111.7059 L 11.4277,111.4782 L 11.3273,111.2426 L 11.2407,110.9965 L 11.1645,110.7431 L 11.0996,110.4799 L 11.0455,110.2104 L 11.0061,109.9318 L 10.9768,109.6461 L 10.9606,109.3537 L 10.9579,109.0549 L 10.9655,108.7517 L 10.9889,108.4415 L 11.0233,108.1261 L 11.072,107.8059 L 11.1356,107.4799 L 11.2101,107.1529 L 11.2101,107.1529 L 11.2101,107.1529 z M 18.3881,78.5936 L 19.1499,78.5936 L 11.9719,107.1529 L 11.2101,107.1529 L 18.3881,78.5936 L 18.3881,78.5936 z M 25.141,72.0951 L 24.9506,72.8527 L 24.9506,72.8527 L 24.7299,72.8592 L 24.5101,72.8799 L 24.2899,72.9161 L 24.0688,72.9643 L 23.847,73.0255 L 23.6259,73.1009 L 23.4052,73.1871 L 23.1842,73.2881 L 22.9658,73.3993 L 22.7469,73.5231 L 22.5306,73.659 L 22.3161,73.8068 L 22.1054,73.9645 L 21.8972,74.1333 L 21.6919,74.3126 L 21.4899,74.5023 L 21.2933,74.7003 L 21.1019,74.9093 L 20.914,75.1259 L 20.732,75.3526 L 20.5572,75.5862 L 20.389,75.8292 L 20.226,76.0781 L 20.0724,76.3342 L 19.9256,76.597 L 19.7862,76.8662 L 19.657,77.1428 L 19.5348,77.4234 L 19.4241,77.7092 L 19.3223,77.9998 L 19.2298,78.2947 L 19.1499,78.5936 L 18.3881,78.5936 L 18.4784,78.2651 L 18.5783,77.9406 L 18.6905,77.6204 L 18.8146,77.305 L 18.9472,76.9948 L 19.092,76.6916 L 19.2448,76.3928 L 19.408,76.1004 L 19.581,75.8147 L 19.7604,75.5362 L 19.95,75.2666 L 20.1472,75.0034 L 20.3508,74.7501 L 20.5611,74.5039 L 20.7799,74.2683 L 21.0047,74.0407 L 21.2343,73.8244 L 21.4702,73.6183 L 21.7118,73.4229 L 21.9589,73.2386 L 22.2092,73.0672 L 22.4641,72.9075 L 22.7218,72.7601 L 22.9848,72.6253 L 23.249,72.5065 L 23.5165,72.3995 L 23.786,72.3093 L 24.0562,72.2333 L 24.3277,72.1733 L 24.6001,72.1313 L 24.8719,72.1046 L 25.141,72.0951 L 25.141,72.0951 L 25.141,72.0951 z"
             style="fill:#1f1a17;fill-rule:nonzero" />
        </g>
        <path
           style="fill:#131516"
           id="path46"
           d="M 30.092416,25.440217 C 30.151541,25.208851 30.156429,25.06358 30.10791,25.001958 C 30.060702,24.940212 29.928481,24.909383 29.712504,24.909383 C 29.388564,24.909383 29.160776,24.955671 29.02921,25.048174 C 28.897236,25.142024 28.797632,25.320727 28.729689,25.586816 C 28.704757,25.684473 28.681932,25.804015 28.661232,25.945462 C 28.639611,26.085528 28.623958,26.176827 28.613156,26.219237 C 28.588543,26.315671 28.538643,26.395355 28.462785,26.460908 C 28.386944,26.52646 28.309315,26.558617 28.229578,26.558617 C 28.148584,26.558617 28.093178,26.52901 28.060702,26.469868 C 28.028245,26.410743 28.023853,26.332352 28.048785,26.234678 C 28.057657,26.199971 28.093886,26.088078 28.157615,25.899175 C 28.219644,25.711494 28.270978,25.540529 28.310076,25.387502 C 28.33005,25.309164 28.349935,25.201149 28.37191,25.059755 C 28.392292,24.919636 28.410495,24.818084 28.426591,24.755081 C 28.458765,24.629128 28.518705,24.535297 28.605471,24.472294 C 28.693495,24.409291 28.810682,24.378444 28.955901,24.378444 C 28.96881,24.378444 29.005765,24.379719 29.068095,24.382269 C 29.482874,24.398985 29.911199,24.408016 30.355991,24.408016 L 31.037249,24.408016 C 31.494933,24.408016 31.930411,24.398985 32.345987,24.382269 C 32.403235,24.379719 32.43826,24.378444 32.447273,24.378444 C 32.589959,24.378444 32.688785,24.409291 32.742456,24.471019 C 32.797366,24.532694 32.808115,24.626578 32.775285,24.755081 C 32.759242,24.818084 32.725598,24.919636 32.675646,25.059755 C 32.624152,25.201149 32.588826,25.309164 32.568799,25.387502 C 32.529754,25.540529 32.493861,25.711494 32.46135,25.899175 C 32.427246,26.088078 32.406404,26.199971 32.397533,26.234678 C 32.371946,26.334955 32.328456,26.41462 32.268658,26.472471 C 32.208931,26.530321 32.138739,26.558617 32.05902,26.558617 C 31.976734,26.558617 31.914244,26.52646 31.87311,26.460908 C 31.832029,26.395355 31.824131,26.315671 31.848745,26.219237 C 31.859546,26.176827 31.890552,26.085528 31.941779,25.945462 C 31.992033,25.804015 32.03021,25.684473 32.055195,25.586816 C 32.123139,25.320727 32.113506,25.142024 32.028174,25.048174 C 31.942541,24.955671 31.734514,24.909383 31.402889,24.909383 C 31.202353,24.909383 31.062075,24.940212 30.982055,25.001958 C 30.902017,25.06358 30.832799,25.208851 30.773727,25.440217 L 29.981037,28.544628 C 29.929189,28.747715 29.93011,28.885284 29.984649,28.958539 C 30.039542,29.030555 30.160147,29.066554 30.349156,29.066554 C 30.394115,29.066554 30.457844,29.058852 30.541441,29.043411 C 30.623444,29.02928 30.68457,29.021542 30.72188,29.021542 C 30.832445,29.021542 30.911349,29.044686 30.957689,29.089645 C 31.003711,29.135914 31.01492,29.202795 30.991936,29.292767 C 30.965374,29.396904 30.91613,29.473967 30.844521,29.522857 C 30.772594,29.573022 30.677629,29.597423 30.560654,29.597423 C 30.47966,29.597423 30.310058,29.587135 30.051778,29.566541 C 29.793196,29.547276 29.570844,29.53697 29.385713,29.53697 C 29.230189,29.53697 29.016761,29.547276 28.745749,29.566541 C 28.474419,29.587135 28.284135,29.597423 28.176119,29.597423 C 28.056523,29.597423 27.972838,29.573022 27.927118,29.525407 C 27.881751,29.47657 27.872508,29.402057 27.898467,29.30047 C 27.919468,29.218183 27.963506,29.151373 28.03191,29.099933 C 28.100615,29.047271 28.17789,29.021542 28.262762,29.021542 C 28.303896,29.021542 28.368741,29.02928 28.45896,29.043411 C 28.548878,29.058852 28.620186,29.066554 28.672848,29.066554 C 28.864407,29.066554 29.003109,29.03183 29.08899,28.962399 C 29.176465,28.891711 29.246604,28.75285 29.299779,28.544628 L 30.092416,25.440217 L 30.092416,25.440217 z M 32.80174,27.747617 L 32.795826,27.770761 C 32.68751,28.19496 32.705961,28.535615 32.850223,28.791399 C 32.994432,29.047271 33.239255,29.175774 33.586321,29.175774 C 33.79711,29.175774 33.984065,29.138464 34.147398,29.062677 C 34.312041,28.986818 34.473976,28.865965 34.635255,28.697603 C 34.697656,28.629447 34.77146,28.526638 34.85704,28.387847 C 34.987951,28.182104 35.111903,28.079295 35.230224,28.079295 C 35.304684,28.079295 35.361118,28.104988 35.398179,28.156429 C 35.435188,28.207851 35.444466,28.272129 35.424422,28.35052 C 35.401437,28.440491 35.341746,28.553606 35.247188,28.687297 C 35.152276,28.822281 35.038453,28.955989 34.904089,29.089645 C 34.697337,29.290217 34.474489,29.437985 34.235174,29.53442 C 33.996247,29.629544 33.726971,29.677159 33.428778,29.677159 C 32.895235,29.677159 32.519608,29.49711 32.29915,29.137189 C 32.078994,28.775993 32.046218,28.29012 32.202804,27.676965 C 32.358683,27.06636 32.639239,26.581761 33.043871,26.220512 C 33.448132,25.860591 33.915661,25.680648 34.449203,25.680648 C 34.96077,25.680648 35.330236,25.834844 35.558998,26.142121 C 35.786485,26.449327 35.834401,26.860688 35.703101,27.374894 C 35.665384,27.52268 35.614404,27.621664 35.551455,27.671812 C 35.488505,27.721924 35.384314,27.747617 35.238989,27.747617 L 35.106609,27.747617 L 32.80174,27.747617 L 32.80174,27.747617 z M 32.965056,27.254041 L 35.093806,27.254041 L 35.106308,27.205168 C 35.184451,26.899219 35.15132,26.651192 35.00874,26.45958 C 34.864442,26.269402 34.63807,26.174225 34.329572,26.174225 C 34.026173,26.174225 33.752204,26.270677 33.508904,26.463457 C 33.263922,26.657602 33.083837,26.919813 32.965056,27.254041 L 32.965056,27.254041 z M 36.1531,27.676965 C 36.312289,27.053522 36.597627,26.565045 37.010263,26.207674 C 37.422527,25.851578 37.909127,25.67291 38.469531,25.67291 C 38.920752,25.67291 39.25891,25.778322 39.483086,25.987872 C 39.707262,26.197368 39.776179,26.471143 39.690192,26.807973 C 39.640293,27.003357 39.545275,27.158881 39.403916,27.274581 C 39.262523,27.390299 39.09609,27.448096 38.904532,27.448096 C 38.774701,27.448096 38.68071,27.418525 38.625091,27.359453 C 38.568215,27.300328 38.553535,27.216731 38.581106,27.108769 C 38.599822,27.035513 38.635804,26.969978 38.688554,26.909507 C 38.741269,26.849107 38.807743,26.800235 38.884398,26.761686 C 38.899237,26.753948 38.920185,26.74752 38.946534,26.739835 C 39.007748,26.716744 39.044562,26.683295 39.056036,26.638283 C 39.086865,26.51743 39.037674,26.408193 38.90933,26.311811 C 38.780916,26.215359 38.609597,26.166539 38.396222,26.166539 C 37.998992,26.166539 37.656654,26.304108 37.366624,26.579158 C 37.076524,26.85426 36.867222,27.241203 36.739534,27.74119 C 36.627959,28.178279 36.645029,28.529187 36.789504,28.793984 C 36.933961,29.058852 37.179138,29.191232 37.526221,29.191232 C 37.76019,29.191232 37.965454,29.142342 38.143042,29.045961 C 38.321958,28.949562 38.48568,28.796534 38.637185,28.585763 C 38.672511,28.5382 38.720109,28.46236 38.78235,28.35955 C 38.927923,28.121704 39.065156,28.002179 39.192437,28.002179 C 39.273377,28.002179 39.333689,28.027926 39.373282,28.079295 C 39.412841,28.130682 39.42212,28.19496 39.402092,28.273404 C 39.372574,28.389122 39.306915,28.525309 39.205168,28.682215 C 39.103439,28.838996 38.987987,28.979133 38.858103,29.105086 C 38.659762,29.292767 38.435675,29.435435 38.188656,29.531835 C 37.940416,29.628269 37.669545,29.677159 37.379002,29.677159 C 36.844238,29.677159 36.4673,29.49711 36.246471,29.138464 C 36.026987,28.779818 35.99584,28.292669 36.1531,27.676965 L 36.1531,27.676965 z M 41.159908,25.643338 C 41.257423,25.261549 41.286268,25.032786 41.246763,24.955671 C 41.207063,24.879759 41.097312,24.841228 40.916041,24.841228 L 40.679523,24.841228 C 40.579264,24.841228 40.511515,24.824512 40.477375,24.792355 C 40.443466,24.758959 40.435427,24.704987 40.454427,24.630403 C 40.474471,24.552012 40.515553,24.491559 40.57783,24.44915 C 40.640071,24.406741 40.720215,24.384872 40.817925,24.384872 C 40.823077,24.384872 40.867063,24.38875 40.948676,24.396435 C 41.031547,24.404138 41.114081,24.408016 41.19635,24.408016 C 41.377603,24.408016 41.559228,24.401588 41.743757,24.38875 C 41.776587,24.386147 41.797428,24.384872 41.805184,24.384872 C 41.900291,24.384872 41.959628,24.404138 41.983232,24.442722 C 42.007739,24.482582 42.000515,24.576431 41.962727,24.724252 L 41.549542,26.34264 C 41.769132,26.131815 41.992405,25.977566 42.21913,25.879856 C 42.445909,25.782147 42.692308,25.73331 42.955848,25.73331 C 43.477774,25.73331 43.821581,25.861866 43.988615,26.118977 C 44.155667,26.376089 44.164981,26.792532 44.018293,27.367156 L 43.706784,28.587038 C 43.646437,28.823556 43.631811,28.97143 43.663011,29.030555 C 43.694141,29.089645 43.7856,29.119199 43.936024,29.119199 C 43.965578,29.119199 44.003808,29.115321 44.049476,29.107636 C 44.096489,29.099933 44.125741,29.096055 44.141129,29.096055 C 44.246542,29.096055 44.32194,29.117924 44.366385,29.160333 C 44.41053,29.20407 44.420765,29.269623 44.398754,29.35577 C 44.378108,29.43671 44.339877,29.495835 44.284719,29.53056 C 44.229578,29.565266 44.148212,29.581982 44.040215,29.581982 C 44.011918,29.581982 43.908489,29.574297 43.729928,29.558838 C 43.549684,29.544726 43.383269,29.53697 43.227745,29.53697 C 43.041339,29.53697 42.846504,29.544726 42.642409,29.558838 C 42.436631,29.574297 42.326685,29.581982 42.312573,29.581982 C 42.223823,29.581982 42.162237,29.561441 42.125246,29.520254 C 42.087777,29.480448 42.078144,29.422598 42.097197,29.348067 C 42.119172,29.26192 42.160005,29.197643 42.219024,29.157783 C 42.278362,29.116649 42.358187,29.096055 42.458446,29.096055 C 42.503458,29.096055 42.555146,29.099933 42.613616,29.107636 C 42.672086,29.115321 42.708369,29.119199 42.723774,29.119199 C 42.82924,29.119199 42.907117,29.090902 42.956609,29.033105 C 43.006101,28.975255 43.062181,28.826105 43.1232,28.587038 L 43.402836,27.491834 C 43.521352,27.027828 43.528895,26.696151 43.426121,26.499439 C 43.323365,26.30278 43.096692,26.203796 42.744456,26.203796 C 42.343401,26.203796 42.013919,26.341365 41.758224,26.617742 C 41.501272,26.89412 41.296822,27.332431 41.143546,27.932748 L 40.976459,28.587038 C 40.915439,28.826105 40.895359,28.975255 40.91528,29.033105 C 40.935219,29.090902 40.998682,29.119199 41.104094,29.119199 C 41.119535,29.119199 41.159093,29.115321 41.222699,29.107636 C 41.286428,29.099933 41.338824,29.096055 41.381233,29.096055 C 41.482821,29.096055 41.550764,29.116649 41.587879,29.157783 C 41.625241,29.197643 41.633245,29.26192 41.61127,29.348067 C 41.591597,29.425147 41.553668,29.482998 41.497199,29.522857 C 41.440765,29.562716 41.367722,29.581982 41.280301,29.581982 C 41.264913,29.581982 41.158881,29.574297 40.962275,29.558838 C 40.765369,29.544726 40.573208,29.53697 40.388112,29.53697 C 40.235138,29.53697 40.063465,29.544726 39.876085,29.558838 C 39.687023,29.574297 39.579627,29.581982 39.551331,29.581982 C 39.443368,29.581982 39.370485,29.565266 39.333069,29.53056 C 39.295653,29.495835 39.287596,29.43671 39.308296,29.35577 C 39.330271,29.269623 39.374044,29.20407 39.437915,29.160333 C 39.501431,29.117924 39.585435,29.096055 39.690847,29.096055 C 39.719144,29.096055 39.755391,29.099933 39.80228,29.107636 C 39.849169,29.115321 39.882867,29.119199 39.90346,29.119199 C 40.051282,29.119199 40.157208,29.092177 40.219502,29.039533 C 40.281779,28.986818 40.344641,28.836393 40.408299,28.587038 L 41.159908,25.643338 L 41.159908,25.643338 z" />
        <path
           style="fill:#131516"
           id="path48"
           d="M 44.397958,24.670581 L 44.28633,24.670581 L 44.28633,24.89582 L 44.40111,24.89582 C 44.464573,24.89582 44.509532,24.887409 44.536501,24.870498 C 44.563522,24.853003 44.576714,24.825539 44.576714,24.786901 C 44.576714,24.745661 44.562389,24.71655 44.534411,24.698099 C 44.506327,24.679541 44.460908,24.670581 44.397958,24.670581 z M 44.418038,24.599167 C 44.510099,24.599167 44.578308,24.613935 44.6227,24.643613 C 44.667659,24.672671 44.689882,24.71763 44.689882,24.777924 C 44.689882,24.823945 44.676124,24.86253 44.648642,24.893217 C 44.621673,24.923904 44.584116,24.943435 44.537067,24.951899 L 44.682994,25.249738 L 44.561379,25.249738 L 44.424926,24.967287 L 44.28633,24.967287 L 44.28633,25.249738 L 44.176827,25.249738 L 44.176827,24.599167 L 44.418038,24.599167 L 44.418038,24.599167 z M 44.903558,24.93768 C 44.903558,24.868851 44.891375,24.804378 44.866496,24.743058 C 44.841688,24.682197 44.806202,24.627712 44.75972,24.581159 C 44.711043,24.533048 44.656539,24.496553 44.596245,24.471727 C 44.535438,24.446848 44.470895,24.434116 44.401623,24.434116 C 44.333379,24.434116 44.269968,24.446299 44.210684,24.470611 C 44.151506,24.494977 44.098596,24.529896 44.053123,24.576431 C 44.004446,24.625622 43.967437,24.680568 43.941496,24.741942 C 43.91559,24.803298 43.902911,24.867275 43.902911,24.934457 C 43.902911,25.000063 43.91559,25.063013 43.940982,25.123271 C 43.965861,25.183565 44.002303,25.238051 44.049918,25.28618 C 44.097002,25.333777 44.150426,25.370272 44.210684,25.395151 C 44.270978,25.42049 44.333928,25.43324 44.4001,25.43324 C 44.467743,25.43324 44.531755,25.42049 44.593076,25.395665 C 44.653901,25.370839 44.709449,25.334344 44.758127,25.28618 C 44.805175,25.239645 44.841174,25.18677 44.866053,25.12699 C 44.890861,25.067245 44.903558,25.004295 44.903558,24.93768 L 44.903558,24.93768 z M 44.402703,24.364331 C 44.479925,24.364331 44.553429,24.378604 44.622187,24.407148 C 44.691511,24.435745 44.753346,24.477482 44.808345,24.532481 C 44.861255,24.584895 44.901468,24.645702 44.929464,24.714974 C 44.957494,24.783732 44.971767,24.856722 44.971767,24.933448 C 44.971767,25.011679 44.957494,25.084687 44.929464,25.152931 C 44.901468,25.22114 44.860688,25.281381 44.806769,25.333228 C 44.750689,25.388281 44.68774,25.430017 44.617955,25.459128 C 44.54863,25.488239 44.476703,25.50306 44.402703,25.50306 C 44.327606,25.50306 44.255643,25.488735 44.186921,25.459695 C 44.117649,25.430584 44.055726,25.38883 44.001276,25.333228 C 43.94679,25.279858 43.905497,25.218484 43.877519,25.149726 C 43.848975,25.081004 43.834649,25.009041 43.834649,24.933448 C 43.834649,24.857749 43.849488,24.784812 43.878546,24.714974 C 43.908206,24.645702 43.950456,24.583301 44.006075,24.527789 C 44.057869,24.47433 44.118163,24.434116 44.185345,24.406121 C 44.252987,24.378037 44.325481,24.364331 44.402703,24.364331 L 44.402703,24.364331 z" />
        <path
           style="fill:#bb691c"
           id="path50"
           d="M 17.822449,28.560122 L 18.653016,25.350351 C 18.693282,25.194827 18.691388,25.077799 18.646429,24.998186 C 18.601168,24.919725 18.515075,24.879865 18.386519,24.879865 C 18.317088,24.879865 18.229012,24.887568 18.123759,24.901734 C 18.016912,24.917175 17.950651,24.924877 17.923683,24.924877 C 17.832436,24.924877 17.768973,24.901734 17.730495,24.856722 C 17.692016,24.811727 17.682578,24.748724 17.703225,24.669041 C 17.728812,24.570109 17.77448,24.498076 17.839466,24.450531 C 17.90447,24.402969 17.991785,24.378497 18.10235,24.378497 C 18.147363,24.378497 18.278043,24.390078 18.492197,24.411929 C 18.707289,24.435073 18.90099,24.446653 19.070628,24.446653 C 19.254501,24.446653 19.521033,24.435073 19.868931,24.411929 C 20.217785,24.390078 20.471426,24.378497 20.632156,24.378497 C 21.205452,24.378497 21.60911,24.487788 21.843078,24.706315 C 22.078321,24.924877 22.13943,25.250092 22.027696,25.681976 C 21.95552,25.960956 21.821422,26.191047 21.625065,26.373539 C 21.429026,26.554845 21.181795,26.675646 20.884629,26.736063 C 21.214925,26.820935 21.442979,26.982922 21.572049,27.219387 C 21.699737,27.455905 21.7184,27.751548 21.626286,28.107645 C 21.503857,28.580716 21.236139,28.949615 20.821821,29.214429 C 20.408476,29.480501 19.890853,29.612935 19.27127,29.612935 C 19.137562,29.612935 18.913988,29.602629 18.597609,29.583363 C 18.281266,29.564098 18.029396,29.553792 17.844265,29.553792 C 17.625737,29.553792 17.394231,29.564098 17.151444,29.583363 C 16.907383,29.602629 16.772293,29.612935 16.747874,29.612935 C 16.637327,29.612935 16.562336,29.589791 16.521963,29.542229 C 16.481236,29.495942 16.473179,29.422651 16.498766,29.323702 C 16.519059,29.245311 16.56076,29.183583 16.622187,29.139845 C 16.683295,29.097436 16.758375,29.075568 16.849621,29.075568 C 16.886931,29.075568 16.951722,29.083323 17.043217,29.097436 C 17.134357,29.112877 17.206886,29.12058 17.259601,29.12058 C 17.412629,29.12058 17.530879,29.08072 17.61483,28.99978 C 17.698426,28.920043 17.767237,28.773497 17.822449,28.560122 L 17.822449,28.560122 z M 18.456658,28.612837 C 18.404103,28.815906 18.429601,28.950943 18.534093,29.019045 C 18.638584,29.087148 18.905081,29.12058 19.33438,29.12058 C 19.784307,29.12058 20.145008,29.033211 20.415205,28.858368 C 20.686341,28.684853 20.866691,28.425156 20.95583,28.080623 C 21.051256,27.711742 20.997018,27.444325 20.794409,27.278565 C 20.590509,27.1127 20.213305,27.030431 19.66055,27.030431 C 19.309607,27.030431 19.08088,27.059985 18.976902,27.119128 C 18.872853,27.178253 18.794923,27.305534 18.744351,27.5009 L 18.456658,28.612837 L 18.456658,28.612837 z M 19.053363,26.306765 C 19.03307,26.385102 19.060906,26.441695 19.135472,26.476402 C 19.211313,26.511108 19.341657,26.529099 19.526753,26.529099 C 19.750415,26.529099 19.939424,26.523964 20.095409,26.512383 C 20.252651,26.50082 20.388449,26.482829 20.505637,26.457136 C 20.699746,26.417277 20.877032,26.318327 21.037196,26.161493 C 21.198617,26.004641 21.305251,25.82599 21.357151,25.625454 C 21.425343,25.361932 21.371724,25.171684 21.196332,25.054655 C 21.02087,24.937733 20.696541,24.879865 20.224726,24.879865 C 19.875093,24.879865 19.64796,24.908162 19.539485,24.964737 C 19.432284,25.021277 19.357718,25.130514 19.315468,25.293829 L 19.053363,26.306765 L 19.053363,26.306765 z M 23.156969,28.650147 L 24.010467,25.351626 C 24.051034,25.194827 24.048909,25.079127 24.004605,25.002011 C 23.959947,24.926152 23.874775,24.887568 23.746219,24.887568 C 23.674238,24.887568 23.584178,24.897856 23.47765,24.917175 C 23.369476,24.937733 23.302542,24.948021 23.275538,24.948021 C 23.186841,24.948021 23.124086,24.922274 23.085608,24.87218 C 23.047165,24.822015 23.039126,24.753859 23.061083,24.669041 C 23.086316,24.571384 23.132302,24.498076 23.197289,24.450531 C 23.262328,24.402969 23.349643,24.378497 23.460208,24.378497 C 23.505114,24.378497 23.635866,24.390078 23.852605,24.411929 C 24.06899,24.435073 24.261363,24.446653 24.429778,24.446653 C 24.620009,24.446653 24.883938,24.435073 25.221654,24.411929 C 25.558945,24.390078 25.798456,24.378497 25.942417,24.378497 C 26.524725,24.378497 26.930473,24.504503 27.161289,24.755187 C 27.39076,25.005871 27.441846,25.379923 27.314104,25.873535 C 27.244939,26.140899 27.142325,26.368439 27.007288,26.557395 C 26.871968,26.747626 26.693814,26.909614 26.472117,27.045872 C 26.289234,27.161537 26.089566,27.242531 25.874155,27.290128 C 25.658744,27.337691 25.337514,27.362109 24.910765,27.362109 C 24.822015,27.362109 24.727263,27.360834 24.622506,27.358231 C 24.519024,27.355681 24.458925,27.354406 24.440934,27.354406 C 24.321409,27.354406 24.237086,27.367262 24.190958,27.391627 C 24.144423,27.417356 24.110531,27.468796 24.090593,27.545912 L 23.804848,28.650147 C 23.760951,28.819784 23.762527,28.938052 23.811772,29.001055 C 23.860662,29.065333 23.966782,29.097436 24.129992,29.097436 C 24.172454,29.097436 24.241283,29.089733 24.335274,29.074293 C 24.428911,29.06018 24.497775,29.052477 24.540184,29.052477 C 24.621125,29.052477 24.682304,29.079445 24.723934,29.132143 C 24.765582,29.184858 24.775268,29.251739 24.754674,29.331404 C 24.731035,29.422651 24.67577,29.492064 24.587286,29.540954 C 24.500431,29.588516 24.384872,29.612935 24.240911,29.612935 C 24.143201,29.612935 23.978753,29.602629 23.748468,29.583363 C 23.516943,29.564098 23.334503,29.553792 23.202087,29.553792 C 22.988713,29.553792 22.759827,29.564098 22.514455,29.583363 C 22.269066,29.602629 22.132701,29.612935 22.10575,29.612935 C 21.995185,29.612935 21.920194,29.589791 21.879733,29.542229 C 21.839059,29.495942 21.831055,29.422651 21.856642,29.323702 C 21.877289,29.243983 21.919592,29.179705 21.98433,29.128283 C 22.048697,29.078171 22.122165,29.052477 22.205762,29.052477 C 22.253306,29.052477 22.316876,29.06018 22.398082,29.074293 C 22.477641,29.089733 22.537333,29.097436 22.578467,29.097436 C 22.74428,29.097436 22.871525,29.06273 22.961479,28.993352 C 23.049821,28.925196 23.115427,28.810771 23.156969,28.650147 L 23.156969,28.650147 z M 24.329058,26.624276 C 24.305809,26.714195 24.318452,26.774648 24.367696,26.802891 C 24.416622,26.832498 24.549197,26.846611 24.765174,26.846611 C 25.386032,26.846611 25.829815,26.775923 26.099464,26.633236 C 26.368705,26.491842 26.548577,26.243762 26.640036,25.890268 C 26.733868,25.527744 26.697532,25.270686 26.532729,25.117658 C 26.367891,24.964737 26.040782,24.887568 25.55103,24.887568 C 25.193659,24.887568 24.96943,24.914589 24.876094,24.967287 C 24.784033,25.020002 24.714248,25.135649 24.667359,25.316973 L 24.329058,26.624276 L 24.329058,26.624276 z" />
      </g>
    </g>
  </g>
</svg>
